<mxfile host="app.diagrams.net" agent="Mozilla/5.0 (Windows NT 10.0; Win64; x64) AppleWebKit/537.36 (KHTML, like Gecko) Chrome/130.0.0.0 Safari/537.36" version="24.8.4">
  <diagram name="Страница — 1" id="61obWKptWlQ09NZs3MzU">
    <mxGraphModel dx="1877" dy="603" grid="1" gridSize="10" guides="1" tooltips="1" connect="1" arrows="1" fold="1" page="1" pageScale="1" pageWidth="827" pageHeight="1169" math="0" shadow="0">
      <root>
        <mxCell id="0" />
        <mxCell id="1" parent="0" />
        <mxCell id="VC-thPKfoRn562eEeUEu-22" style="edgeStyle=orthogonalEdgeStyle;rounded=1;orthogonalLoop=1;jettySize=auto;html=1;exitX=1;exitY=0.5;exitDx=0;exitDy=0;entryX=0;entryY=0.25;entryDx=0;entryDy=0;curved=0;" edge="1" parent="1" source="VC-thPKfoRn562eEeUEu-1" target="VC-thPKfoRn562eEeUEu-2">
          <mxGeometry relative="1" as="geometry" />
        </mxCell>
        <mxCell id="VC-thPKfoRn562eEeUEu-1" value="Изучение текущего расписания" style="rounded=0;whiteSpace=wrap;html=1;" vertex="1" parent="1">
          <mxGeometry x="220" y="140" width="120" height="60" as="geometry" />
        </mxCell>
        <mxCell id="VC-thPKfoRn562eEeUEu-25" style="edgeStyle=orthogonalEdgeStyle;rounded=1;orthogonalLoop=1;jettySize=auto;html=1;entryX=0;entryY=0.5;entryDx=0;entryDy=0;curved=0;" edge="1" parent="1" source="VC-thPKfoRn562eEeUEu-2" target="VC-thPKfoRn562eEeUEu-3">
          <mxGeometry relative="1" as="geometry">
            <Array as="points">
              <mxPoint x="600" y="260" />
              <mxPoint x="600" y="350" />
            </Array>
          </mxGeometry>
        </mxCell>
        <mxCell id="VC-thPKfoRn562eEeUEu-2" value="Составление графика работы" style="whiteSpace=wrap;html=1;rounded=0;" vertex="1" parent="1">
          <mxGeometry x="385" y="230" width="120" height="60" as="geometry" />
        </mxCell>
        <mxCell id="VC-thPKfoRn562eEeUEu-11" style="edgeStyle=orthogonalEdgeStyle;rounded=1;orthogonalLoop=1;jettySize=auto;html=1;exitX=1;exitY=0.5;exitDx=0;exitDy=0;" edge="1" parent="1" source="VC-thPKfoRn562eEeUEu-3">
          <mxGeometry relative="1" as="geometry">
            <mxPoint x="860" y="350" as="targetPoint" />
          </mxGeometry>
        </mxCell>
        <mxCell id="VC-thPKfoRn562eEeUEu-3" value="Информирование" style="whiteSpace=wrap;html=1;rounded=0;" vertex="1" parent="1">
          <mxGeometry x="620" y="320" width="120" height="60" as="geometry" />
        </mxCell>
        <mxCell id="VC-thPKfoRn562eEeUEu-4" value="Рабочее время руководителя" style="text;html=1;align=center;verticalAlign=middle;resizable=0;points=[];autosize=1;strokeColor=none;fillColor=none;rounded=1;" vertex="1" parent="1">
          <mxGeometry x="10" y="230" width="190" height="30" as="geometry" />
        </mxCell>
        <mxCell id="VC-thPKfoRn562eEeUEu-5" value="Список свободных аудиторий" style="text;html=1;align=center;verticalAlign=middle;resizable=0;points=[];autosize=1;strokeColor=none;fillColor=none;rounded=1;" vertex="1" parent="1">
          <mxGeometry x="10" y="140" width="190" height="30" as="geometry" />
        </mxCell>
        <mxCell id="VC-thPKfoRn562eEeUEu-6" value="Заместитель директора&lt;br&gt;по учебной работе&amp;nbsp;" style="text;html=1;align=center;verticalAlign=middle;resizable=0;points=[];autosize=1;strokeColor=none;fillColor=none;rounded=1;" vertex="1" parent="1">
          <mxGeometry x="200" y="470" width="160" height="40" as="geometry" />
        </mxCell>
        <mxCell id="VC-thPKfoRn562eEeUEu-18" style="edgeStyle=orthogonalEdgeStyle;rounded=0;orthogonalLoop=1;jettySize=auto;html=1;entryX=0.75;entryY=1;entryDx=0;entryDy=0;" edge="1" parent="1" source="VC-thPKfoRn562eEeUEu-7" target="VC-thPKfoRn562eEeUEu-3">
          <mxGeometry relative="1" as="geometry" />
        </mxCell>
        <mxCell id="VC-thPKfoRn562eEeUEu-7" value="Руководитель&lt;br&gt;по пению" style="text;html=1;align=center;verticalAlign=middle;resizable=0;points=[];autosize=1;strokeColor=none;fillColor=none;rounded=1;" vertex="1" parent="1">
          <mxGeometry x="660" y="470" width="100" height="40" as="geometry" />
        </mxCell>
        <mxCell id="VC-thPKfoRn562eEeUEu-8" value="Закон об образовании" style="text;html=1;align=center;verticalAlign=middle;resizable=0;points=[];autosize=1;strokeColor=none;fillColor=none;rounded=1;" vertex="1" parent="1">
          <mxGeometry x="370" y="60" width="150" height="30" as="geometry" />
        </mxCell>
        <mxCell id="VC-thPKfoRn562eEeUEu-9" value="Готовое расписание" style="text;html=1;align=center;verticalAlign=middle;resizable=0;points=[];autosize=1;strokeColor=none;fillColor=none;rounded=1;" vertex="1" parent="1">
          <mxGeometry x="730" y="320" width="140" height="30" as="geometry" />
        </mxCell>
        <mxCell id="VC-thPKfoRn562eEeUEu-12" value="" style="endArrow=classic;html=1;rounded=1;entryX=0.5;entryY=0;entryDx=0;entryDy=0;" edge="1" parent="1" target="VC-thPKfoRn562eEeUEu-2">
          <mxGeometry width="50" height="50" relative="1" as="geometry">
            <mxPoint x="445" y="90" as="sourcePoint" />
            <mxPoint x="440" y="290" as="targetPoint" />
          </mxGeometry>
        </mxCell>
        <mxCell id="VC-thPKfoRn562eEeUEu-15" value="" style="endArrow=classic;html=1;rounded=1;entryX=0.5;entryY=0;entryDx=0;entryDy=0;" edge="1" parent="1" target="VC-thPKfoRn562eEeUEu-3">
          <mxGeometry width="50" height="50" relative="1" as="geometry">
            <mxPoint x="445" y="88" as="sourcePoint" />
            <mxPoint x="440" y="290" as="targetPoint" />
            <Array as="points">
              <mxPoint x="445" y="120" />
              <mxPoint x="680" y="120" />
            </Array>
          </mxGeometry>
        </mxCell>
        <mxCell id="VC-thPKfoRn562eEeUEu-16" value="" style="endArrow=classic;html=1;rounded=1;exitX=0.5;exitY=0.025;exitDx=0;exitDy=0;exitPerimeter=0;entryX=0.5;entryY=1;entryDx=0;entryDy=0;" edge="1" parent="1" source="VC-thPKfoRn562eEeUEu-6" target="VC-thPKfoRn562eEeUEu-1">
          <mxGeometry width="50" height="50" relative="1" as="geometry">
            <mxPoint x="390" y="340" as="sourcePoint" />
            <mxPoint x="440" y="290" as="targetPoint" />
          </mxGeometry>
        </mxCell>
        <mxCell id="VC-thPKfoRn562eEeUEu-17" value="" style="endArrow=classic;html=1;rounded=1;exitX=0.498;exitY=0.005;exitDx=0;exitDy=0;exitPerimeter=0;entryX=0.5;entryY=1;entryDx=0;entryDy=0;" edge="1" parent="1" source="VC-thPKfoRn562eEeUEu-6" target="VC-thPKfoRn562eEeUEu-2">
          <mxGeometry width="50" height="50" relative="1" as="geometry">
            <mxPoint x="290" y="481" as="sourcePoint" />
            <mxPoint x="290" y="210" as="targetPoint" />
            <Array as="points">
              <mxPoint x="280" y="440" />
              <mxPoint x="445" y="440" />
            </Array>
          </mxGeometry>
        </mxCell>
        <mxCell id="VC-thPKfoRn562eEeUEu-19" value="" style="endArrow=classic;html=1;rounded=1;entryX=0.25;entryY=1;entryDx=0;entryDy=0;curved=0;" edge="1" parent="1" target="VC-thPKfoRn562eEeUEu-3">
          <mxGeometry width="50" height="50" relative="1" as="geometry">
            <mxPoint x="280" y="470" as="sourcePoint" />
            <mxPoint x="440" y="290" as="targetPoint" />
            <Array as="points">
              <mxPoint x="280" y="440" />
              <mxPoint x="650" y="440" />
            </Array>
          </mxGeometry>
        </mxCell>
        <mxCell id="VC-thPKfoRn562eEeUEu-20" value="" style="endArrow=classic;html=1;rounded=0;entryX=0;entryY=0.5;entryDx=0;entryDy=0;" edge="1" parent="1" target="VC-thPKfoRn562eEeUEu-1">
          <mxGeometry width="50" height="50" relative="1" as="geometry">
            <mxPoint y="170" as="sourcePoint" />
            <mxPoint x="440" y="290" as="targetPoint" />
          </mxGeometry>
        </mxCell>
        <mxCell id="VC-thPKfoRn562eEeUEu-21" value="" style="endArrow=classic;html=1;rounded=0;entryX=0;entryY=0.5;entryDx=0;entryDy=0;" edge="1" parent="1" target="VC-thPKfoRn562eEeUEu-2">
          <mxGeometry width="50" height="50" relative="1" as="geometry">
            <mxPoint y="260" as="sourcePoint" />
            <mxPoint x="440" y="290" as="targetPoint" />
          </mxGeometry>
        </mxCell>
        <mxCell id="VC-thPKfoRn562eEeUEu-23" value="Текущее&lt;br&gt;расписание" style="text;html=1;align=center;verticalAlign=middle;resizable=0;points=[];autosize=1;strokeColor=none;fillColor=none;" vertex="1" parent="1">
          <mxGeometry x="360" y="180" width="90" height="40" as="geometry" />
        </mxCell>
        <mxCell id="VC-thPKfoRn562eEeUEu-26" value="График&lt;br&gt;работы &lt;br&gt;руководителя" style="text;html=1;align=center;verticalAlign=middle;resizable=0;points=[];autosize=1;strokeColor=none;fillColor=none;" vertex="1" parent="1">
          <mxGeometry x="500" y="200" width="100" height="60" as="geometry" />
        </mxCell>
        <mxCell id="VC-thPKfoRn562eEeUEu-32" style="edgeStyle=orthogonalEdgeStyle;rounded=1;orthogonalLoop=1;jettySize=auto;html=1;entryX=0;entryY=0.5;entryDx=0;entryDy=0;curved=0;" edge="1" parent="1" source="VC-thPKfoRn562eEeUEu-27" target="VC-thPKfoRn562eEeUEu-28">
          <mxGeometry relative="1" as="geometry">
            <Array as="points">
              <mxPoint x="460" y="565" />
              <mxPoint x="460" y="625" />
            </Array>
          </mxGeometry>
        </mxCell>
        <mxCell id="VC-thPKfoRn562eEeUEu-27" value="Изучение списка свободных аудиторий" style="whiteSpace=wrap;html=1;" vertex="1" parent="1">
          <mxGeometry x="260" y="535" width="120" height="60" as="geometry" />
        </mxCell>
        <mxCell id="VC-thPKfoRn562eEeUEu-34" style="edgeStyle=orthogonalEdgeStyle;rounded=0;orthogonalLoop=1;jettySize=auto;html=1;" edge="1" parent="1" source="VC-thPKfoRn562eEeUEu-28">
          <mxGeometry relative="1" as="geometry">
            <mxPoint x="730" y="625" as="targetPoint" />
          </mxGeometry>
        </mxCell>
        <mxCell id="VC-thPKfoRn562eEeUEu-28" value="Определение аудиторий для занятий" style="whiteSpace=wrap;html=1;" vertex="1" parent="1">
          <mxGeometry x="480" y="595" width="120" height="60" as="geometry" />
        </mxCell>
        <mxCell id="VC-thPKfoRn562eEeUEu-30" style="edgeStyle=orthogonalEdgeStyle;rounded=1;orthogonalLoop=1;jettySize=auto;html=1;entryX=0.5;entryY=1;entryDx=0;entryDy=0;curved=0;" edge="1" parent="1" source="VC-thPKfoRn562eEeUEu-29" target="VC-thPKfoRn562eEeUEu-28">
          <mxGeometry relative="1" as="geometry" />
        </mxCell>
        <mxCell id="VC-thPKfoRn562eEeUEu-31" style="edgeStyle=orthogonalEdgeStyle;rounded=1;orthogonalLoop=1;jettySize=auto;html=1;entryX=0.5;entryY=1;entryDx=0;entryDy=0;curved=0;" edge="1" parent="1" source="VC-thPKfoRn562eEeUEu-29" target="VC-thPKfoRn562eEeUEu-27">
          <mxGeometry relative="1" as="geometry" />
        </mxCell>
        <mxCell id="VC-thPKfoRn562eEeUEu-29" value="Заместитель директора&lt;br&gt;по учебной работе&amp;nbsp;" style="text;html=1;align=center;verticalAlign=middle;resizable=0;points=[];autosize=1;strokeColor=none;fillColor=none;rounded=1;" vertex="1" parent="1">
          <mxGeometry x="345" y="735" width="160" height="40" as="geometry" />
        </mxCell>
        <mxCell id="VC-thPKfoRn562eEeUEu-33" value="Список" style="text;html=1;align=center;verticalAlign=middle;resizable=0;points=[];autosize=1;strokeColor=none;fillColor=none;" vertex="1" parent="1">
          <mxGeometry x="390" y="530" width="60" height="30" as="geometry" />
        </mxCell>
        <mxCell id="VC-thPKfoRn562eEeUEu-35" value="Текущее расписание" style="text;html=1;align=center;verticalAlign=middle;resizable=0;points=[];autosize=1;strokeColor=none;fillColor=none;" vertex="1" parent="1">
          <mxGeometry x="590" y="593" width="140" height="30" as="geometry" />
        </mxCell>
        <mxCell id="VC-thPKfoRn562eEeUEu-37" value="" style="endArrow=classic;html=1;rounded=0;entryX=0;entryY=0.5;entryDx=0;entryDy=0;" edge="1" parent="1" target="VC-thPKfoRn562eEeUEu-27">
          <mxGeometry width="50" height="50" relative="1" as="geometry">
            <mxPoint x="70" y="565" as="sourcePoint" />
            <mxPoint x="510" y="585" as="targetPoint" />
          </mxGeometry>
        </mxCell>
        <mxCell id="VC-thPKfoRn562eEeUEu-38" value="Список свободных аудиторий" style="text;html=1;align=center;verticalAlign=middle;resizable=0;points=[];autosize=1;strokeColor=none;fillColor=none;rounded=1;" vertex="1" parent="1">
          <mxGeometry x="60" y="530" width="190" height="30" as="geometry" />
        </mxCell>
        <mxCell id="VC-thPKfoRn562eEeUEu-39" value="Определение рабочих дней и выходных" style="whiteSpace=wrap;html=1;" vertex="1" parent="1">
          <mxGeometry x="499" y="930" width="120" height="60" as="geometry" />
        </mxCell>
        <mxCell id="VC-thPKfoRn562eEeUEu-45" style="edgeStyle=orthogonalEdgeStyle;rounded=0;orthogonalLoop=1;jettySize=auto;html=1;exitX=1;exitY=0.5;exitDx=0;exitDy=0;" edge="1" parent="1" source="VC-thPKfoRn562eEeUEu-39">
          <mxGeometry relative="1" as="geometry">
            <mxPoint x="749" y="960" as="targetPoint" />
          </mxGeometry>
        </mxCell>
        <mxCell id="VC-thPKfoRn562eEeUEu-47" style="edgeStyle=orthogonalEdgeStyle;rounded=1;orthogonalLoop=1;jettySize=auto;html=1;entryX=0;entryY=0.5;entryDx=0;entryDy=0;curved=0;" edge="1" parent="1" source="VC-thPKfoRn562eEeUEu-40" target="VC-thPKfoRn562eEeUEu-39">
          <mxGeometry relative="1" as="geometry">
            <Array as="points">
              <mxPoint x="469" y="900" />
              <mxPoint x="469" y="960" />
            </Array>
          </mxGeometry>
        </mxCell>
        <mxCell id="VC-thPKfoRn562eEeUEu-40" value="Формирование списка групп для занятий" style="whiteSpace=wrap;html=1;" vertex="1" parent="1">
          <mxGeometry x="269" y="870" width="120" height="60" as="geometry" />
        </mxCell>
        <mxCell id="VC-thPKfoRn562eEeUEu-41" value="" style="endArrow=none;html=1;rounded=0;" edge="1" parent="1">
          <mxGeometry width="50" height="50" relative="1" as="geometry">
            <mxPoint x="-40" y="520" as="sourcePoint" />
            <mxPoint x="990" y="520" as="targetPoint" />
          </mxGeometry>
        </mxCell>
        <mxCell id="VC-thPKfoRn562eEeUEu-42" value="" style="endArrow=none;html=1;rounded=0;" edge="1" parent="1">
          <mxGeometry width="50" height="50" relative="1" as="geometry">
            <mxPoint x="-85" y="775" as="sourcePoint" />
            <mxPoint x="925" y="775" as="targetPoint" />
          </mxGeometry>
        </mxCell>
        <mxCell id="VC-thPKfoRn562eEeUEu-44" value="Список групп" style="text;html=1;align=center;verticalAlign=middle;resizable=0;points=[];autosize=1;strokeColor=none;fillColor=none;" vertex="1" parent="1">
          <mxGeometry x="379" y="870" width="100" height="30" as="geometry" />
        </mxCell>
        <mxCell id="VC-thPKfoRn562eEeUEu-46" value="График работы&lt;br&gt;руководителя" style="text;html=1;align=center;verticalAlign=middle;resizable=0;points=[];autosize=1;strokeColor=none;fillColor=none;" vertex="1" parent="1">
          <mxGeometry x="629" y="920" width="110" height="40" as="geometry" />
        </mxCell>
        <mxCell id="VC-thPKfoRn562eEeUEu-49" style="edgeStyle=orthogonalEdgeStyle;rounded=1;orthogonalLoop=1;jettySize=auto;html=1;entryX=0.5;entryY=0;entryDx=0;entryDy=0;curved=0;" edge="1" parent="1" target="VC-thPKfoRn562eEeUEu-40">
          <mxGeometry relative="1" as="geometry">
            <mxPoint x="559" y="811" as="sourcePoint" />
            <Array as="points">
              <mxPoint x="559" y="811" />
              <mxPoint x="559" y="840" />
              <mxPoint x="329" y="840" />
            </Array>
          </mxGeometry>
        </mxCell>
        <mxCell id="VC-thPKfoRn562eEeUEu-50" style="edgeStyle=orthogonalEdgeStyle;rounded=1;orthogonalLoop=1;jettySize=auto;html=1;entryX=0.5;entryY=0;entryDx=0;entryDy=0;curved=0;" edge="1" parent="1" source="VC-thPKfoRn562eEeUEu-48" target="VC-thPKfoRn562eEeUEu-39">
          <mxGeometry relative="1" as="geometry">
            <Array as="points">
              <mxPoint x="559" y="840" />
              <mxPoint x="559" y="840" />
            </Array>
          </mxGeometry>
        </mxCell>
        <mxCell id="VC-thPKfoRn562eEeUEu-48" value="Закон об образовании" style="text;html=1;align=center;verticalAlign=middle;resizable=0;points=[];autosize=1;strokeColor=none;fillColor=none;" vertex="1" parent="1">
          <mxGeometry x="484" y="780" width="150" height="30" as="geometry" />
        </mxCell>
        <mxCell id="VC-thPKfoRn562eEeUEu-52" style="edgeStyle=orthogonalEdgeStyle;rounded=1;orthogonalLoop=1;jettySize=auto;html=1;entryX=0.5;entryY=1;entryDx=0;entryDy=0;curved=0;" edge="1" parent="1" source="VC-thPKfoRn562eEeUEu-51" target="VC-thPKfoRn562eEeUEu-40">
          <mxGeometry relative="1" as="geometry" />
        </mxCell>
        <mxCell id="VC-thPKfoRn562eEeUEu-53" style="edgeStyle=orthogonalEdgeStyle;rounded=1;orthogonalLoop=1;jettySize=auto;html=1;entryX=0.5;entryY=1;entryDx=0;entryDy=0;exitX=0.501;exitY=0.015;exitDx=0;exitDy=0;exitPerimeter=0;curved=0;" edge="1" parent="1" source="VC-thPKfoRn562eEeUEu-51" target="VC-thPKfoRn562eEeUEu-39">
          <mxGeometry relative="1" as="geometry" />
        </mxCell>
        <mxCell id="VC-thPKfoRn562eEeUEu-51" value="Заместитель директора&lt;br&gt;по учебной работе&amp;nbsp;" style="text;html=1;align=center;verticalAlign=middle;resizable=0;points=[];autosize=1;strokeColor=none;fillColor=none;rounded=1;" vertex="1" parent="1">
          <mxGeometry x="249" y="1050" width="160" height="40" as="geometry" />
        </mxCell>
        <mxCell id="VC-thPKfoRn562eEeUEu-54" value="" style="endArrow=classic;html=1;rounded=0;entryX=0;entryY=0.25;entryDx=0;entryDy=0;" edge="1" parent="1" target="VC-thPKfoRn562eEeUEu-40">
          <mxGeometry width="50" height="50" relative="1" as="geometry">
            <mxPoint x="89" y="885" as="sourcePoint" />
            <mxPoint x="499" y="910" as="targetPoint" />
          </mxGeometry>
        </mxCell>
        <mxCell id="VC-thPKfoRn562eEeUEu-55" value="Текущее расписание" style="text;html=1;align=center;verticalAlign=middle;resizable=0;points=[];autosize=1;strokeColor=none;fillColor=none;" vertex="1" parent="1">
          <mxGeometry x="109" y="860" width="140" height="30" as="geometry" />
        </mxCell>
        <mxCell id="VC-thPKfoRn562eEeUEu-56" value="" style="endArrow=classic;html=1;rounded=0;entryX=0;entryY=0.75;entryDx=0;entryDy=0;" edge="1" parent="1" target="VC-thPKfoRn562eEeUEu-40">
          <mxGeometry width="50" height="50" relative="1" as="geometry">
            <mxPoint x="89" y="915" as="sourcePoint" />
            <mxPoint x="279" y="895" as="targetPoint" />
          </mxGeometry>
        </mxCell>
        <mxCell id="VC-thPKfoRn562eEeUEu-57" value="Рабочее время руководителя" style="text;html=1;align=center;verticalAlign=middle;resizable=0;points=[];autosize=1;strokeColor=none;fillColor=none;" vertex="1" parent="1">
          <mxGeometry x="79" y="890" width="190" height="30" as="geometry" />
        </mxCell>
        <mxCell id="VC-thPKfoRn562eEeUEu-70" style="edgeStyle=orthogonalEdgeStyle;rounded=1;orthogonalLoop=1;jettySize=auto;html=1;entryX=0;entryY=0.5;entryDx=0;entryDy=0;curved=0;" edge="1" parent="1" source="VC-thPKfoRn562eEeUEu-58" target="VC-thPKfoRn562eEeUEu-63">
          <mxGeometry relative="1" as="geometry">
            <Array as="points">
              <mxPoint x="320" y="1290" />
              <mxPoint x="320" y="1340" />
            </Array>
          </mxGeometry>
        </mxCell>
        <mxCell id="VC-thPKfoRn562eEeUEu-58" value="Формирование электронного расписания" style="rounded=0;whiteSpace=wrap;html=1;" vertex="1" parent="1">
          <mxGeometry x="130" y="1260" width="120" height="60" as="geometry" />
        </mxCell>
        <mxCell id="VC-thPKfoRn562eEeUEu-59" value="&lt;b&gt;&lt;font style=&quot;font-size: 14px;&quot;&gt;ИЗУЧЕНИЕ &lt;br&gt;ТЕКУЩЕГО &lt;br&gt;РАСПИСАНИЯ&lt;/font&gt;&lt;/b&gt;" style="text;html=1;align=center;verticalAlign=middle;resizable=0;points=[];autosize=1;strokeColor=none;fillColor=none;" vertex="1" parent="1">
          <mxGeometry x="-80" y="533" width="120" height="60" as="geometry" />
        </mxCell>
        <mxCell id="VC-thPKfoRn562eEeUEu-60" value="&lt;span style=&quot;font-size: 14px;&quot;&gt;&lt;b&gt;СОСТАВЛЕНИЕ&lt;br&gt;ГРАФИКА&lt;br&gt;РАБОТЫ&lt;/b&gt;&lt;/span&gt;" style="text;html=1;align=center;verticalAlign=middle;resizable=0;points=[];autosize=1;strokeColor=none;fillColor=none;" vertex="1" parent="1">
          <mxGeometry x="-85" y="800" width="130" height="60" as="geometry" />
        </mxCell>
        <mxCell id="VC-thPKfoRn562eEeUEu-61" value="" style="endArrow=none;html=1;rounded=0;" edge="1" parent="1">
          <mxGeometry width="50" height="50" relative="1" as="geometry">
            <mxPoint x="-80" y="1170" as="sourcePoint" />
            <mxPoint x="860" y="1170" as="targetPoint" />
          </mxGeometry>
        </mxCell>
        <mxCell id="VC-thPKfoRn562eEeUEu-62" value="&lt;span style=&quot;font-size: 14px;&quot;&gt;&lt;b&gt;ИНФОРМИРОВАНИЕ&lt;/b&gt;&lt;/span&gt;" style="text;html=1;align=center;verticalAlign=middle;resizable=0;points=[];autosize=1;strokeColor=none;fillColor=none;" vertex="1" parent="1">
          <mxGeometry x="-160" y="1180" width="170" height="30" as="geometry" />
        </mxCell>
        <mxCell id="VC-thPKfoRn562eEeUEu-69" style="edgeStyle=orthogonalEdgeStyle;rounded=1;orthogonalLoop=1;jettySize=auto;html=1;entryX=0;entryY=0.5;entryDx=0;entryDy=0;curved=0;" edge="1" parent="1" source="VC-thPKfoRn562eEeUEu-63" target="VC-thPKfoRn562eEeUEu-64">
          <mxGeometry relative="1" as="geometry">
            <Array as="points">
              <mxPoint x="560" y="1360" />
              <mxPoint x="560" y="1430" />
            </Array>
          </mxGeometry>
        </mxCell>
        <mxCell id="VC-thPKfoRn562eEeUEu-63" value="Публикация расписания" style="whiteSpace=wrap;html=1;" vertex="1" parent="1">
          <mxGeometry x="340" y="1310" width="120" height="60" as="geometry" />
        </mxCell>
        <mxCell id="VC-thPKfoRn562eEeUEu-67" style="edgeStyle=orthogonalEdgeStyle;rounded=0;orthogonalLoop=1;jettySize=auto;html=1;" edge="1" parent="1" source="VC-thPKfoRn562eEeUEu-64">
          <mxGeometry relative="1" as="geometry">
            <mxPoint x="850" y="1430" as="targetPoint" />
          </mxGeometry>
        </mxCell>
        <mxCell id="VC-thPKfoRn562eEeUEu-64" value="Оповещение руководителей и учеников о новом расписании" style="whiteSpace=wrap;html=1;" vertex="1" parent="1">
          <mxGeometry x="580" y="1400" width="120" height="60" as="geometry" />
        </mxCell>
        <mxCell id="VC-thPKfoRn562eEeUEu-65" value="" style="endArrow=classic;html=1;rounded=0;entryX=0;entryY=0.5;entryDx=0;entryDy=0;" edge="1" parent="1" target="VC-thPKfoRn562eEeUEu-58">
          <mxGeometry width="50" height="50" relative="1" as="geometry">
            <mxPoint x="19" y="1290" as="sourcePoint" />
            <mxPoint x="389" y="1390" as="targetPoint" />
          </mxGeometry>
        </mxCell>
        <mxCell id="VC-thPKfoRn562eEeUEu-66" value="График работы&lt;br&gt;руководителя" style="text;html=1;align=center;verticalAlign=middle;resizable=0;points=[];autosize=1;strokeColor=none;fillColor=none;" vertex="1" parent="1">
          <mxGeometry x="10" y="1250" width="110" height="40" as="geometry" />
        </mxCell>
        <mxCell id="VC-thPKfoRn562eEeUEu-68" value="Готовое расписание" style="text;html=1;align=center;verticalAlign=middle;resizable=0;points=[];autosize=1;strokeColor=none;fillColor=none;" vertex="1" parent="1">
          <mxGeometry x="700" y="1400" width="140" height="30" as="geometry" />
        </mxCell>
        <mxCell id="VC-thPKfoRn562eEeUEu-72" style="edgeStyle=orthogonalEdgeStyle;rounded=1;orthogonalLoop=1;jettySize=auto;html=1;entryX=0.5;entryY=1;entryDx=0;entryDy=0;curved=0;" edge="1" parent="1" source="VC-thPKfoRn562eEeUEu-71" target="VC-thPKfoRn562eEeUEu-63">
          <mxGeometry relative="1" as="geometry" />
        </mxCell>
        <mxCell id="VC-thPKfoRn562eEeUEu-73" style="edgeStyle=orthogonalEdgeStyle;rounded=1;orthogonalLoop=1;jettySize=auto;html=1;entryX=0.5;entryY=1;entryDx=0;entryDy=0;curved=0;" edge="1" parent="1" source="VC-thPKfoRn562eEeUEu-71" target="VC-thPKfoRn562eEeUEu-64">
          <mxGeometry relative="1" as="geometry">
            <Array as="points">
              <mxPoint x="400" y="1490" />
              <mxPoint x="640" y="1490" />
            </Array>
          </mxGeometry>
        </mxCell>
        <mxCell id="VC-thPKfoRn562eEeUEu-74" style="edgeStyle=orthogonalEdgeStyle;rounded=1;orthogonalLoop=1;jettySize=auto;html=1;entryX=0.75;entryY=1;entryDx=0;entryDy=0;curved=0;" edge="1" parent="1" source="VC-thPKfoRn562eEeUEu-71" target="VC-thPKfoRn562eEeUEu-58">
          <mxGeometry relative="1" as="geometry">
            <Array as="points">
              <mxPoint x="400" y="1450" />
              <mxPoint x="220" y="1450" />
            </Array>
          </mxGeometry>
        </mxCell>
        <mxCell id="VC-thPKfoRn562eEeUEu-71" value="Заместитель директора&lt;br&gt;по учебной работе&amp;nbsp;" style="text;html=1;align=center;verticalAlign=middle;resizable=0;points=[];autosize=1;strokeColor=none;fillColor=none;rounded=1;" vertex="1" parent="1">
          <mxGeometry x="320" y="1500" width="160" height="40" as="geometry" />
        </mxCell>
        <mxCell id="VC-thPKfoRn562eEeUEu-75" value="Руководитель&lt;br&gt;по пению" style="text;html=1;align=center;verticalAlign=middle;resizable=0;points=[];autosize=1;strokeColor=none;fillColor=none;" vertex="1" parent="1">
          <mxGeometry x="109" y="1500" width="100" height="40" as="geometry" />
        </mxCell>
        <mxCell id="VC-thPKfoRn562eEeUEu-76" value="" style="endArrow=classic;html=1;rounded=0;entryX=0.25;entryY=1;entryDx=0;entryDy=0;exitX=0.5;exitY=0;exitDx=0;exitDy=0;exitPerimeter=0;" edge="1" parent="1" source="VC-thPKfoRn562eEeUEu-75" target="VC-thPKfoRn562eEeUEu-58">
          <mxGeometry width="50" height="50" relative="1" as="geometry">
            <mxPoint x="190" y="1510" as="sourcePoint" />
            <mxPoint x="370" y="1450" as="targetPoint" />
          </mxGeometry>
        </mxCell>
        <mxCell id="VC-thPKfoRn562eEeUEu-79" style="edgeStyle=orthogonalEdgeStyle;rounded=0;orthogonalLoop=1;jettySize=auto;html=1;entryX=0.5;entryY=0;entryDx=0;entryDy=0;" edge="1" parent="1" source="VC-thPKfoRn562eEeUEu-77" target="VC-thPKfoRn562eEeUEu-63">
          <mxGeometry relative="1" as="geometry" />
        </mxCell>
        <mxCell id="VC-thPKfoRn562eEeUEu-80" style="edgeStyle=orthogonalEdgeStyle;rounded=1;orthogonalLoop=1;jettySize=auto;html=1;entryX=0.5;entryY=0;entryDx=0;entryDy=0;curved=0;" edge="1" parent="1" source="VC-thPKfoRn562eEeUEu-77" target="VC-thPKfoRn562eEeUEu-58">
          <mxGeometry relative="1" as="geometry">
            <Array as="points">
              <mxPoint x="400" y="1230" />
              <mxPoint x="190" y="1230" />
            </Array>
          </mxGeometry>
        </mxCell>
        <mxCell id="VC-thPKfoRn562eEeUEu-81" style="edgeStyle=orthogonalEdgeStyle;rounded=1;orthogonalLoop=1;jettySize=auto;html=1;entryX=0.5;entryY=0;entryDx=0;entryDy=0;curved=0;" edge="1" parent="1" source="VC-thPKfoRn562eEeUEu-77" target="VC-thPKfoRn562eEeUEu-64">
          <mxGeometry relative="1" as="geometry">
            <Array as="points">
              <mxPoint x="400" y="1250" />
              <mxPoint x="640" y="1250" />
            </Array>
          </mxGeometry>
        </mxCell>
        <mxCell id="VC-thPKfoRn562eEeUEu-77" value="Закон об образовании" style="text;html=1;align=center;verticalAlign=middle;resizable=0;points=[];autosize=1;strokeColor=none;fillColor=none;" vertex="1" parent="1">
          <mxGeometry x="325" y="1180" width="150" height="30" as="geometry" />
        </mxCell>
        <mxCell id="VC-thPKfoRn562eEeUEu-82" value="Файл &lt;br&gt;расписания" style="text;html=1;align=center;verticalAlign=middle;resizable=0;points=[];autosize=1;strokeColor=none;fillColor=none;" vertex="1" parent="1">
          <mxGeometry x="239" y="1250" width="90" height="40" as="geometry" />
        </mxCell>
        <mxCell id="VC-thPKfoRn562eEeUEu-83" value="Ссылка&amp;nbsp;&lt;br&gt;на расписание" style="text;html=1;align=center;verticalAlign=middle;resizable=0;points=[];autosize=1;strokeColor=none;fillColor=none;" vertex="1" parent="1">
          <mxGeometry x="450" y="1320" width="110" height="40" as="geometry" />
        </mxCell>
      </root>
    </mxGraphModel>
  </diagram>
</mxfile>
